<svg width="116" height="32" fill="none" xmlns="http://www.w3.org/2000/svg"><path fill-rule="evenodd" clip-rule="evenodd" d="M16 32c8.837 0 16-7.163 16-16S24.837 0 16 0 0 7.163 0 16s7.163 16 16 16zm4.991-24.547c.243-.863-.594-1.373-1.359-.828L8.954 14.232c-.829.59-.699 1.768.196 1.768h2.812v-.022h5.48l-4.465 1.576-1.968 6.993c-.243.863.594 1.373 1.359.828l10.678-7.607c.83-.59.698-1.768-.197-1.768h-4.263l2.405-8.547z" fill="#9DFF3A"/><path d="M45.17 8.1h2.794l8.712 11.836-.77.264V8.1h2.86v15.4H55.95l-8.668-11.814.77-.264V23.5H45.17V8.1zm25.213 8.646c-.03-.616-.168-1.137-.418-1.562a2.512 2.512 0 00-1.056-1.012c-.44-.25-.946-.374-1.518-.374-.66 0-1.232.154-1.716.462-.484.308-.865.74-1.144 1.298-.264.557-.396 1.203-.396 1.936 0 .807.147 1.503.44 2.09a3.422 3.422 0 001.254 1.364c.528.308 1.137.462 1.826.462 1.247 0 2.31-.447 3.19-1.342l1.518 1.518a5.978 5.978 0 01-2.134 1.496c-.836.352-1.767.528-2.794.528-1.232 0-2.303-.25-3.212-.748a5.663 5.663 0 01-2.112-2.09c-.498-.895-.748-1.936-.748-3.124 0-1.188.25-2.23.748-3.124a5.456 5.456 0 012.112-2.09c.91-.499 1.95-.755 3.124-.77 1.394 0 2.516.286 3.366.858.866.572 1.482 1.379 1.848 2.42.367 1.027.499 2.251.396 3.674h-9.24v-1.87h6.666zm10.226-5.082c1.217 0 2.288.25 3.212.748a5.343 5.343 0 012.178 2.09c.528.895.792 1.936.792 3.124 0 1.188-.264 2.23-.792 3.124a5.49 5.49 0 01-2.178 2.112c-.924.499-1.995.748-3.212.748-1.232 0-2.318-.25-3.256-.748a5.645 5.645 0 01-2.2-2.112c-.514-.895-.77-1.936-.77-3.124 0-1.188.256-2.23.77-3.124a5.492 5.492 0 012.2-2.09c.938-.499 2.024-.748 3.256-.748zm0 2.31c-.66 0-1.247.161-1.76.484-.499.308-.888.74-1.166 1.298-.279.543-.418 1.173-.418 1.892 0 .733.139 1.379.418 1.936.278.557.667.99 1.166 1.298.513.308 1.1.462 1.76.462.645 0 1.217-.154 1.716-.462.498-.308.887-.74 1.166-1.298.278-.557.418-1.203.418-1.936 0-.719-.14-1.35-.418-1.892a3.134 3.134 0 00-1.166-1.298c-.499-.323-1.071-.484-1.716-.484zM89.385 8.1h10.626v2.464h-7.678v4.29h6.974v2.442h-6.974V23.5h-2.948V8.1zm12.716 3.674h2.86V23.5h-2.86V11.774zm1.408-4.994c.47 0 .858.154 1.166.462.308.308.462.697.462 1.166 0 .455-.154.843-.462 1.166-.308.308-.696.462-1.166.462-.454 0-.836-.154-1.144-.462a1.628 1.628 0 01-.462-1.166c0-.47.154-.858.462-1.166.308-.308.69-.462 1.144-.462z" fill="#fff"/></svg>