<svg width="131" height="32" fill="none" xmlns="http://www.w3.org/2000/svg"><g clip-path="url(#clip0_1_723)" fill="#999"><path d="M38.631 22.597h9.249v-2.81h-5.962V9.204h-3.287v13.393zm14.729-1.873c-1.319 0-2.006-1.162-2.006-2.904s.687-2.922 2.005-2.922c1.32 0 2.025 1.18 2.025 2.922 0 1.742-.706 2.904-2.025 2.904zm.018 2.173c3.064 0 5.07-2.192 5.07-5.077 0-2.884-2.006-5.076-5.07-5.076-3.046 0-5.088 2.192-5.088 5.076 0 2.885 2.042 5.077 5.088 5.077zm10.374 3.016c1.411 0 2.656-.319 3.491-1.068.762-.693 1.263-1.742 1.263-3.185v-8.654H65.61v1.03h-.037c-.557-.805-1.412-1.31-2.674-1.31-2.359 0-3.993 1.985-3.993 4.795 0 2.94 1.987 4.552 4.123 4.552 1.151 0 1.875-.469 2.432-1.106h.075v.956c0 1.161-.539 1.835-1.82 1.835-1.003 0-1.505-.43-1.672-.936H59.11c.297 2.004 2.024 3.09 4.643 3.09zm-.019-6.107c-1.133 0-1.875-.937-1.875-2.379 0-1.461.742-2.398 1.875-2.398 1.263 0 1.932 1.087 1.932 2.38 0 1.348-.613 2.397-1.932 2.397zm10.731.918c-1.319 0-2.006-1.162-2.006-2.904s.687-2.922 2.006-2.922c1.318 0 2.024 1.18 2.024 2.922 0 1.742-.706 2.904-2.024 2.904zm.018 2.173c3.064 0 5.07-2.192 5.07-5.077 0-2.884-2.006-5.076-5.07-5.076-3.046 0-5.088 2.192-5.088 5.076 0 2.885 2.042 5.077 5.088 5.077zm5.954-.3h3.027v-9.59h-3.027v9.59zm0-10.92h3.027V9.203h-3.027v2.472zm4.34 14.086h3.028v-4.159h.037c.594.806 1.467 1.293 2.693 1.293 2.488 0 4.14-1.986 4.14-5.095 0-2.885-1.54-5.077-4.066-5.077-1.3 0-2.229.581-2.879 1.443h-.055v-1.162h-2.898v12.757zm4.978-5.227c-1.3 0-2.043-1.067-2.043-2.622s.668-2.735 1.987-2.735c1.3 0 1.913 1.087 1.913 2.735 0 1.63-.706 2.622-1.858 2.622zm9.849 2.361c2.489 0 4.327-1.087 4.327-3.185 0-2.454-1.968-2.884-3.64-3.165-1.207-.225-2.284-.319-2.284-.993 0-.6.576-.88 1.319-.88.835 0 1.411.262 1.523 1.123h2.785c-.148-1.892-1.597-3.072-4.29-3.072-2.247 0-4.104 1.05-4.104 3.072 0 2.248 1.764 2.698 3.417 2.979 1.263.224 2.414.318 2.414 1.18 0 .618-.575.955-1.485.955-1.003 0-1.635-.468-1.746-1.424h-2.86c.093 2.117 1.839 3.41 4.624 3.41zm8.44-.019c1.318 0 2.154-.524 2.841-1.461h.056v1.18h2.897v-9.59h-3.027v5.357c0 1.142-.632 1.929-1.672 1.929-.965 0-1.43-.58-1.43-1.63v-5.657H104.7V19.3c0 2.136 1.151 3.578 3.343 3.578zm7.111-.281h3.027v-5.376c0-1.143.557-1.948 1.504-1.948.91 0 1.337.6 1.337 1.63v5.694h3.028v-5.376c0-1.143.538-1.948 1.504-1.948.91 0 1.337.6 1.337 1.63v5.694h3.027v-6.238c0-2.154-1.077-3.634-3.231-3.634-1.226 0-2.247.525-2.99 1.686h-.037c-.483-1.03-1.43-1.686-2.675-1.686-1.374 0-2.284.656-2.878 1.649h-.056v-1.368h-2.897v9.591zM20.162 1.543L17.12.72l-2.565 9.655-2.315-8.716-3.044.822 2.502 9.417-6.231-6.285L3.238 7.86l6.835 6.894-8.512-2.3-.815 3.07 9.3 2.513a6.432 6.432 0 01-.163-1.442c0-3.51 2.821-6.356 6.302-6.356 3.48 0 6.301 2.846 6.301 6.356 0 .493-.056.973-.16 1.433l8.451 2.285.816-3.07-9.337-2.524 8.512-2.3-.816-3.07-9.336 2.523 6.231-6.284-2.228-2.248-6.74 6.799 2.283-8.596z"/><path d="M22.317 18.064a6.36 6.36 0 01-1.567 2.913l6.123 6.176 2.228-2.247-6.784-6.842zm-1.63 2.978a6.285 6.285 0 01-2.815 1.679l2.228 8.387 3.043-.823-2.456-9.243zm-2.929 1.71a6.256 6.256 0 01-3.254-.029l-2.23 8.394 3.043.823 2.44-9.189zm-3.362-.06a6.292 6.292 0 01-2.766-1.704l-6.138 6.19 2.228 2.248 6.676-6.734zm-2.818-1.759a6.359 6.359 0 01-1.528-2.877l-8.48 2.292.816 3.07 9.192-2.485z"/></g><defs><clipPath id="clip0_1_723"><path fill="#fff" transform="translate(.5)" d="M0 0h130v32H0z"/></clipPath></defs></svg>