<svg width="48" height="48" fill="none" xmlns="http://www.w3.org/2000/svg"><mask id="a" style="mask-type:luminance" maskUnits="userSpaceOnUse" x="0" y="0" width="48" height="48"><path d="M0 0h48v48H0V0z" fill="#fff"/></mask><g mask="url(#a)" stroke="#9DFF3A" stroke-width="1.5" stroke-miterlimit="10" stroke-linecap="round" stroke-linejoin="round"><path d="M8.36 9.268a22.406 22.406 0 012.586-2.517M3.41 18.95a22.27 22.27 0 012.796-6.773m4.6 28.956A22.333 22.333 0 012.854 23.22M35.84 43.544a22.044 22.044 0 01-10.77 2.793 22.042 22.042 0 01-10.74-2.775m29.587-31.408A22.313 22.313 0 0147.297 24a22.333 22.333 0 01-7.944 17.115M38.995 6.59a22.4 22.4 0 012.318 2.162M14.47 4.361a22.045 22.045 0 0110.6-2.698c3.739 0 7.263.928 10.356 2.567M26.93 9.471a31.296 31.296 0 018.225-3.6M17.823 18.085a31.64 31.64 0 015.657-6.125M12.263 40.201a31.632 31.632 0 013.323-18.437m7.621-12.292a31.308 31.308 0 00-8.526-3.682M35.37 23.464a31.738 31.738 0 00-8.71-11.504m11.112 19.756a31.663 31.663 0 00-.924-4.225m1.014 12.817c.186-1.482.268-2.974.245-4.467M14.613 19.477a43.042 43.042 0 00-9.701 1.06m29.413 3.862a43.01 43.01 0 00-15.453-4.687m26.631 13.093a43.333 43.333 0 00-7.49-6.235m-.755-2.983a43.221 43.221 0 004.87-11.022M14.612 41.682A43.335 43.335 0 0034.828 27.1"/><path d="M25.068 12.674a2.145 2.145 0 01-2.137-2.148c0-1.185.959-2.148 2.137-2.148 1.179 0 2.138.963 2.138 2.148a2.145 2.145 0 01-2.138 2.148zm-8.318 9.438a2.145 2.145 0 01-2.138-2.148c0-1.185.96-2.148 2.138-2.148 1.179 0 2.137.963 2.137 2.148a2.145 2.145 0 01-2.137 2.148zm19.441 5.483a2.145 2.145 0 01-2.137-2.148c0-1.185.959-2.148 2.137-2.148 1.179 0 2.138.963 2.138 2.148a2.145 2.145 0 01-2.138 2.148zM12.583 44.473a2.145 2.145 0 01-2.137-2.148c0-1.184.959-2.148 2.137-2.148 1.18 0 2.138.964 2.138 2.148a2.145 2.145 0 01-2.138 2.148zm25.094.123a2.145 2.145 0 01-2.137-2.148c0-1.185.958-2.148 2.137-2.148s2.138.963 2.138 2.148a2.145 2.145 0 01-2.138 2.148zm4.984-32.031a2.145 2.145 0 01-2.138-2.148c0-1.184.96-2.148 2.138-2.148 1.179 0 2.138.964 2.138 2.148a2.145 2.145 0 01-2.138 2.148zM37.234 7.52a2.145 2.145 0 01-2.137-2.147c0-1.185.959-2.148 2.137-2.148 1.179 0 2.138.963 2.138 2.148a2.145 2.145 0 01-2.138 2.148zm-24.651 0a2.145 2.145 0 01-2.137-2.147c0-1.185.959-2.148 2.137-2.148 1.18 0 2.138.963 2.138 2.148a2.145 2.145 0 01-2.138 2.148zM2.84 23.219A2.145 2.145 0 01.704 21.07c0-1.184.959-2.148 2.138-2.148 1.178 0 2.137.964 2.137 2.148a2.145 2.145 0 01-2.137 2.149z"/></g></svg>