<svg width="130" height="32" fill="none" xmlns="http://www.w3.org/2000/svg"><g clip-path="url(#clip0_1_712)" fill="#999"><path d="M38.065 22.473h9.232v-2.81h-5.95V9.08h-3.282v13.393zM52.767 20.6c-1.316 0-2.002-1.162-2.002-2.904s.686-2.922 2.002-2.922c1.316 0 2.02 1.18 2.02 2.922 0 1.742-.704 2.904-2.02 2.904zm.019 2.173c3.059 0 5.06-2.192 5.06-5.077 0-2.884-2.001-5.076-5.06-5.076-3.04 0-5.08 2.192-5.08 5.076 0 2.885 2.04 5.077 5.08 5.077zm10.356 3.016c1.409 0 2.65-.319 3.485-1.068.76-.693 1.26-1.742 1.26-3.184v-8.655h-2.891v1.03h-.037c-.556-.805-1.41-1.31-2.67-1.31-2.354 0-3.986 1.985-3.986 4.795 0 2.94 1.984 4.552 4.116 4.552 1.15 0 1.872-.469 2.428-1.106h.075v.956c0 1.161-.538 1.835-1.817 1.835-1.001 0-1.502-.43-1.669-.936h-2.929c.297 2.004 2.02 3.09 4.635 3.09zm-.019-6.107c-1.13 0-1.872-.937-1.872-2.379 0-1.461.742-2.398 1.872-2.398 1.261 0 1.928 1.087 1.928 2.38 0 1.348-.611 2.397-1.928 2.397zm10.712.918c-1.317 0-2.003-1.162-2.003-2.904s.686-2.922 2.003-2.922c1.316 0 2.02 1.18 2.02 2.922 0 1.742-.704 2.904-2.02 2.904zm.018 2.173c3.059 0 5.062-2.192 5.062-5.077 0-2.884-2.003-5.076-5.062-5.076-3.04 0-5.08 2.192-5.08 5.076 0 2.885 2.04 5.077 5.08 5.077zm5.943-.3h3.022v-9.59h-3.022v9.59zm0-10.92h3.022V9.08h-3.022v2.472zm4.333 14.086h3.022V21.48h.037c.593.806 1.464 1.293 2.688 1.293 2.484 0 4.134-1.986 4.134-5.095 0-2.885-1.539-5.077-4.06-5.077-1.298 0-2.225.581-2.873 1.443h-.056v-1.162h-2.892V25.64zm4.968-5.226c-1.297 0-2.039-1.068-2.039-2.623 0-1.555.667-2.735 1.984-2.735 1.297 0 1.91 1.087 1.91 2.735 0 1.63-.705 2.623-1.855 2.623zm9.833 2.36c2.485 0 4.32-1.087 4.32-3.185 0-2.454-1.965-2.884-3.633-3.165-1.205-.225-2.28-.319-2.28-.993 0-.6.574-.88 1.316-.88.834 0 1.409.262 1.52 1.123h2.781c-.149-1.892-1.595-3.072-4.283-3.072-2.243 0-4.097 1.05-4.097 3.072 0 2.248 1.761 2.698 3.411 2.979 1.26.225 2.41.318 2.41 1.18 0 .618-.575.955-1.483.955-1.001 0-1.631-.468-1.743-1.423h-2.855c.093 2.116 1.836 3.409 4.617 3.409zm8.425-.019c1.316 0 2.15-.524 2.836-1.461h.056v1.18h2.892v-9.59h-3.022v5.357c0 1.142-.63 1.93-1.669 1.93-.964 0-1.427-.582-1.427-1.63v-5.658h-3.003v6.294c0 2.136 1.149 3.578 3.337 3.578zm7.098-.281h3.022v-5.376c0-1.143.556-1.948 1.502-1.948.908 0 1.334.6 1.334 1.63v5.694h3.022v-5.376c0-1.143.538-1.948 1.502-1.948.908 0 1.335.6 1.335 1.63v5.694h3.022v-6.238c0-2.154-1.076-3.634-3.226-3.634-1.224 0-2.243.525-2.985 1.686h-.037c-.482-1.03-1.428-1.686-2.67-1.686-1.372 0-2.28.656-2.873 1.649h-.056v-1.368h-2.892v9.591z"/><path fill-rule="evenodd" clip-rule="evenodd" d="M7.185 3.037A15.598 15.598 0 004.213 5.78c3.545-.332 8.049.21 13.278 2.852 5.583 2.821 10.08 2.917 13.209 2.307a15.6 15.6 0 00-1.065-2.497c-3.582.381-8.174-.124-13.526-2.828C12.71 3.898 9.715 3.19 7.185 3.037zm20.357 2.395C24.714 2.24 20.602.23 16.027.23c-1.344 0-2.647.173-3.89.5 1.683.463 3.471 1.142 5.354 2.093 3.918 1.98 7.3 2.617 10.052 2.61zm3.827 8.556c-3.78.754-9 .599-15.26-2.563-5.852-2.957-10.51-2.92-13.65-2.214-.163.036-.321.075-.476.114-.411.904-.74 1.854-.975 2.841.252-.068.512-.132.78-.192 3.81-.856 9.195-.819 15.703 2.469 5.851 2.956 10.509 2.919 13.65 2.213.108-.024.214-.049.318-.074a16.053 16.053 0 00-.09-2.594zm-.414 5.888c-3.744.661-8.812.407-14.846-2.641-5.852-2.956-10.51-2.92-13.65-2.214-.698.157-1.325.347-1.879.549l-.002.269c0 8.62 6.917 15.61 15.45 15.61 7.15 0 13.166-4.909 14.927-11.573z"/></g><defs><clipPath id="clip0_1_712"><path fill="#fff" transform="translate(.5)" d="M0 0h129v32H0z"/></clipPath></defs></svg>