<svg width="132" height="32" fill="none" xmlns="http://www.w3.org/2000/svg"><g clip-path="url(#clip0_1_761)" fill="#999"><path d="M39.924 22.364h9.265v-2.742h-5.972V9.29h-3.293v13.074zm14.753-1.828c-1.32 0-2.009-1.134-2.009-2.835 0-1.7.689-2.852 2.01-2.852 1.32 0 2.027 1.152 2.027 2.852 0 1.701-.707 2.835-2.028 2.835zm.019 2.121c3.07 0 5.079-2.14 5.079-4.956 0-2.816-2.01-4.955-5.079-4.955-3.051 0-5.097 2.14-5.097 4.955 0 2.816 2.046 4.956 5.097 4.956zM65.088 25.6c1.414 0 2.66-.31 3.497-1.041.763-.677 1.266-1.7 1.266-3.109v-8.448h-2.903v1.006h-.037c-.558-.786-1.414-1.28-2.679-1.28-2.362 0-4 1.938-4 4.68 0 2.872 1.991 4.444 4.13 4.444 1.154 0 1.88-.457 2.438-1.079h.074v.933c0 1.134-.54 1.792-1.823 1.792-1.005 0-1.507-.42-1.675-.914h-2.939c.298 1.956 2.028 3.017 4.65 3.017zm-.019-5.96c-1.135 0-1.879-.915-1.879-2.323 0-1.426.745-2.34 1.88-2.34 1.264 0 1.934 1.06 1.934 2.322 0 1.317-.614 2.34-1.935 2.34zm10.749.896c-1.32 0-2.01-1.134-2.01-2.835 0-1.7.69-2.852 2.01-2.852 1.32 0 2.028 1.152 2.028 2.852 0 1.701-.707 2.835-2.028 2.835zm.019 2.121c3.07 0 5.078-2.14 5.078-4.956 0-2.816-2.009-4.955-5.078-4.955-3.051 0-5.098 2.14-5.098 4.955 0 2.816 2.047 4.956 5.098 4.956zm5.963-.293h3.033v-9.362h-3.032v9.362zm0-10.66h3.033V9.29h-3.032v2.414zm4.35 13.751h3.032v-4.06h.037c.595.787 1.47 1.262 2.698 1.262 2.492 0 4.148-1.938 4.148-4.974 0-2.816-1.544-4.955-4.074-4.955-1.302 0-2.233.567-2.884 1.408h-.055v-1.134h-2.903v12.453zm4.985-5.102c-1.302 0-2.046-1.042-2.046-2.56s.67-2.67 1.99-2.67c1.303 0 1.917 1.06 1.917 2.67 0 1.59-.707 2.56-1.86 2.56zm9.867 2.304c2.493 0 4.335-1.06 4.335-3.109 0-2.395-1.972-2.816-3.647-3.09-1.209-.22-2.288-.31-2.288-.97 0-.584.577-.858 1.321-.858.837 0 1.414.255 1.525 1.097h2.791c-.149-1.847-1.6-3-4.298-3-2.25 0-4.11 1.025-4.11 3 0 2.194 1.766 2.633 3.422 2.907 1.265.22 2.419.31 2.419 1.152 0 .604-.577.933-1.489.933-1.004 0-1.637-.457-1.748-1.39H96.37c.093 2.066 1.841 3.328 4.632 3.328zm8.454-.018c1.32 0 2.158-.512 2.846-1.427h.056v1.152h2.902v-9.362h-3.033v5.23c0 1.115-.632 1.883-1.674 1.883-.967 0-1.432-.567-1.432-1.59v-5.523h-3.014v6.144c0 2.085 1.153 3.493 3.349 3.493zm7.123-.275h3.032v-5.248c0-1.115.558-1.901 1.507-1.901.911 0 1.339.585 1.339 1.59v5.56h3.033v-5.249c0-1.115.539-1.901 1.507-1.901.911 0 1.339.585 1.339 1.59v5.56h3.032v-6.09c0-2.103-1.079-3.547-3.237-3.547-1.227 0-2.251.512-2.995 1.646h-.037c-.484-1.006-1.432-1.646-2.679-1.646-1.377 0-2.288.64-2.883 1.609h-.056v-1.335h-2.902v9.362z"/><path fill-rule="evenodd" clip-rule="evenodd" d="M16.533.733c8.73 0 15.807 6.956 15.807 15.536 0 8.58-7.077 15.536-15.807 15.536S.727 24.85.727 16.27 7.804.733 16.533.733zm15.2 15.536c0-8.25-6.805-14.94-15.2-14.94-.677 0-1.344.044-1.997.128.422-.036.85-.055 1.281-.055 8.022 0 14.524 6.392 14.524 14.276 0 7.884-6.502 14.276-14.524 14.276-7.594 0-13.826-5.729-14.469-13.03.35 7.948 7.014 14.285 15.185 14.285 8.395 0 15.2-6.689 15.2-14.94zm-1.998-.59c0-7.556-6.231-13.68-13.918-13.68-.624 0-1.238.04-1.84.118.37-.03.746-.046 1.125-.046 7.313 0 13.241 5.827 13.241 13.015 0 7.188-5.928 13.016-13.241 13.016-6.915 0-12.592-5.21-13.19-11.854.304 7.29 6.413 13.11 13.905 13.11 7.687 0 13.918-6.125 13.918-13.68zM15.102 2.666c6.978 0 12.635 5.56 12.635 12.42 0 6.858-5.657 12.418-12.635 12.418-6.817 0-12.373-5.305-12.626-11.944.547 5.992 5.67 10.689 11.91 10.689 6.604 0 11.958-5.263 11.958-11.755 0-6.492-5.354-11.754-11.958-11.754-.342 0-.68.014-1.015.042a12.965 12.965 0 011.73-.116zm10.636 11.828c0-6.162-5.083-11.158-11.352-11.158-.53 0-1.051.036-1.562.105.28-.022.56-.033.845-.033 5.896 0 10.677 4.699 10.677 10.494 0 5.796-4.78 10.494-10.677 10.494-5.55 0-10.11-4.162-10.627-9.484.223 5.969 5.217 10.74 11.344 10.74 6.27 0 11.352-4.995 11.352-11.158zM13.669 4.005c5.561 0 10.07 4.432 10.07 9.898 0 5.467-4.509 9.898-10.07 9.898-5.452 0-9.891-4.258-10.064-9.576.466 4.67 4.474 8.32 9.348 8.32 5.189 0 9.394-4.134 9.394-9.233 0-5.1-4.206-9.234-9.394-9.234a9.74 9.74 0 00-.707.026c.465-.065.94-.098 1.423-.098zm8.072 9.307c0-4.77-3.935-8.638-8.788-8.638-.443 0-.878.033-1.303.095.194-.014.39-.02.588-.02 4.479 0 8.11 3.569 8.11 7.971 0 4.403-3.631 7.973-8.11 7.973-4.198 0-7.65-3.134-8.069-7.152.124 4.664 4.01 8.408 8.784 8.408 4.853 0 8.788-3.867 8.788-8.637zm-9.503-7.968c4.144 0 7.504 3.303 7.504 7.376 0 4.074-3.36 7.376-7.505 7.376-4.091 0-7.418-3.218-7.502-7.22.378 3.355 3.272 5.965 6.787 5.965 3.771 0 6.828-3.005 6.828-6.712s-3.057-6.712-6.828-6.712a6.79 6.79 0 00-.43.013 7.692 7.692 0 011.146-.086zm5.506 6.785c0-3.378-2.786-6.116-6.222-6.116-.345 0-.684.028-1.014.08.099-.004.197-.007.297-.007 3.063 0 5.546 2.44 5.546 5.452 0 3.01-2.483 5.451-5.546 5.451-2.832 0-5.169-2.087-5.505-4.781.043 3.34 2.812 6.036 6.222 6.036 3.436 0 6.222-2.738 6.222-6.115zm-6.939-5.447c2.728 0 4.94 2.174 4.94 4.856 0 2.681-2.212 4.855-4.94 4.855s-4.94-2.174-4.94-4.855v-.02c.284 2.044 2.067 3.618 4.224 3.618 2.355 0 4.263-1.876 4.263-4.19 0-2.315-1.908-4.19-4.263-4.19-.053 0-.106 0-.159.002a5.04 5.04 0 01.875-.076zm2.94 4.264c0-1.985-1.636-3.594-3.656-3.594-2.02 0-3.656 1.609-3.656 3.594 0 1.985 1.637 3.594 3.656 3.594 2.02 0 3.657-1.61 3.657-3.594z"/></g><defs><clipPath id="clip0_1_761"><path fill="#fff" transform="translate(.5)" d="M0 0h131v32H0z"/></clipPath></defs></svg>