<svg width="132" height="32" fill="none" xmlns="http://www.w3.org/2000/svg"><g clip-path="url(#clip0_1_739)" fill="#999"><path d="M40.463 21.961h9.21v-2.81h-5.937V8.569h-3.273v13.393zm14.667-1.873c-1.314 0-1.998-1.161-1.998-2.903s.684-2.922 1.998-2.922c1.313 0 2.015 1.18 2.015 2.922 0 1.742-.703 2.903-2.016 2.903zm.018 2.173c3.051 0 5.049-2.191 5.049-5.076s-1.998-5.076-5.049-5.076c-3.033 0-5.067 2.191-5.067 5.076s2.034 5.076 5.067 5.076zm10.331 3.016c1.405 0 2.645-.319 3.477-1.068.758-.693 1.257-1.742 1.257-3.184V12.37h-2.885v1.03h-.037c-.555-.806-1.405-1.311-2.663-1.311-2.349 0-3.976 1.985-3.976 4.795 0 2.94 1.979 4.552 4.106 4.552 1.146 0 1.868-.469 2.422-1.105h.074v.955c0 1.161-.536 1.836-1.812 1.836-.999 0-1.498-.431-1.665-.937h-2.922c.296 2.004 2.016 3.09 4.624 3.09zm-.019-6.107c-1.128 0-1.868-.936-1.868-2.379 0-1.46.74-2.397 1.868-2.397 1.258 0 1.924 1.086 1.924 2.379 0 1.348-.61 2.397-1.924 2.397zm10.686.918c-1.314 0-1.998-1.161-1.998-2.903s.684-2.922 1.998-2.922c1.313 0 2.015 1.18 2.015 2.922 0 1.742-.702 2.903-2.015 2.903zm.018 2.173c3.052 0 5.049-2.191 5.049-5.076s-1.997-5.076-5.049-5.076c-3.033 0-5.067 2.191-5.067 5.076s2.034 5.076 5.067 5.076zm5.929-.3h3.014v-9.59h-3.014v9.59zm0-10.92h3.014V8.568h-3.014v2.473zm4.323 14.086h3.015v-4.159h.037c.591.806 1.46 1.293 2.681 1.293 2.478 0 4.124-1.985 4.124-5.095 0-2.885-1.535-5.076-4.05-5.076-1.294 0-2.22.58-2.866 1.442H89.3v-1.161h-2.885v12.756zm4.956-5.226c-1.294 0-2.034-1.068-2.034-2.623 0-1.554.666-2.734 1.979-2.734 1.295 0 1.905 1.086 1.905 2.734 0 1.63-.703 2.623-1.85 2.623zm9.809 2.36c2.478 0 4.309-1.086 4.309-3.184 0-2.454-1.96-2.885-3.625-3.166-1.202-.225-2.274-.318-2.274-.993 0-.6.573-.88 1.313-.88.832 0 1.405.262 1.516 1.124h2.774c-.148-1.892-1.59-3.072-4.272-3.072-2.237 0-4.087 1.049-4.087 3.072 0 2.248 1.757 2.697 3.403 2.978 1.258.225 2.404.319 2.404 1.18 0 .618-.573.956-1.479.956-.999 0-1.628-.469-1.739-1.424h-2.848c.093 2.116 1.831 3.409 4.605 3.409zm8.404-.019c1.313 0 2.146-.524 2.83-1.46h.055v1.18h2.885V12.37h-3.014v5.357c0 1.143-.629 1.93-1.665 1.93-.961 0-1.424-.581-1.424-1.63V12.37h-2.996v6.294c0 2.135 1.147 3.577 3.329 3.577zm7.081-.281h3.015v-5.376c0-1.142.554-1.948 1.498-1.948.906 0 1.331.6 1.331 1.63v5.694h3.015v-5.376c0-1.142.536-1.948 1.498-1.948.906 0 1.331.6 1.331 1.63v5.694h3.015v-6.237c0-2.155-1.073-3.634-3.218-3.634-1.221 0-2.238.524-2.978 1.686h-.037c-.481-1.03-1.424-1.686-2.663-1.686-1.368 0-2.275.655-2.866 1.648h-.056v-1.367h-2.885v9.59z"/><path fill-rule="evenodd" clip-rule="evenodd" d="M16.44 31.327c8.51 0 15.41-6.989 15.41-15.61 0-8.62-6.9-15.61-15.41-15.61-8.513 0-15.413 6.99-15.413 15.61 0 8.621 6.9 15.61 15.412 15.61zM21.246 7.38c.234-.842-.573-1.34-1.31-.808l-10.282 7.42c-.8.577-.674 1.725.188 1.725h2.709v-.02h5.278l-4.3 1.536-1.897 6.822c-.234.843.573 1.34 1.31.809l10.285-7.421c.799-.577.673-1.726-.19-1.726H18.93l2.317-8.338z"/></g><defs><clipPath id="clip0_1_739"><path fill="#fff" transform="translate(.5)" d="M0 0h131v32H0z"/></clipPath></defs></svg>