<svg width="133" height="32" fill="none" xmlns="http://www.w3.org/2000/svg"><g clip-path="url(#clip0_1_750)" fill="#999"><path d="M40.315 22.887h9.28v-2.81h-5.981V9.493h-3.299v13.394zm14.779-1.874c-1.323 0-2.012-1.161-2.012-2.903s.69-2.922 2.012-2.922c1.323 0 2.032 1.18 2.032 2.922 0 1.742-.709 2.903-2.032 2.903zm.019 2.173c3.075 0 5.087-2.192 5.087-5.076 0-2.885-2.012-5.076-5.087-5.076-3.056 0-5.106 2.191-5.106 5.076 0 2.884 2.05 5.076 5.106 5.076zm10.409 3.016c1.417 0 2.665-.319 3.504-1.068.764-.693 1.267-1.742 1.267-3.184v-8.654h-2.907v1.03h-.037c-.56-.806-1.416-1.311-2.684-1.311-2.366 0-4.006 1.985-4.006 4.795 0 2.941 1.994 4.552 4.137 4.552 1.155 0 1.882-.468 2.441-1.105h.075v.955c0 1.161-.54 1.836-1.827 1.836-1.006 0-1.51-.431-1.677-.937h-2.944c.298 2.005 2.03 3.09 4.658 3.09zm-.018-6.107c-1.137 0-1.882-.936-1.882-2.379 0-1.46.745-2.397 1.882-2.397 1.267 0 1.938 1.086 1.938 2.379 0 1.348-.615 2.397-1.938 2.397zm10.766.918c-1.323 0-2.012-1.161-2.012-2.903s.69-2.922 2.013-2.922 2.03 1.18 2.03 2.922c0 1.742-.707 2.903-2.03 2.903zm.02 2.173c3.074 0 5.086-2.192 5.086-5.076 0-2.885-2.012-5.076-5.087-5.076-3.056 0-5.106 2.191-5.106 5.076 0 2.884 2.05 5.076 5.106 5.076zm5.974-.299H85.3v-9.591h-3.037v9.59zm0-10.921H85.3V9.493h-3.037v2.473zm4.356 14.086h3.037v-4.158h.037c.596.805 1.472 1.292 2.702 1.292 2.497 0 4.156-1.985 4.156-5.095 0-2.885-1.547-5.076-4.081-5.076-1.305 0-2.237.58-2.889 1.442h-.056v-1.161H86.62v12.756zm4.993-5.226c-1.304 0-2.05-1.068-2.05-2.623 0-1.554.671-2.734 1.995-2.734 1.304 0 1.919 1.086 1.919 2.734 0 1.63-.708 2.623-1.864 2.623zm9.884 2.36c2.497 0 4.342-1.086 4.342-3.184 0-2.454-1.975-2.885-3.652-3.166-1.212-.225-2.293-.318-2.293-.993 0-.6.578-.88 1.324-.88.838 0 1.416.262 1.528 1.124h2.795c-.149-1.892-1.603-3.072-4.305-3.072-2.255 0-4.118 1.049-4.118 3.072 0 2.248 1.77 2.697 3.429 2.978 1.267.225 2.422.319 2.422 1.18 0 .618-.577.956-1.491.956-1.006 0-1.64-.469-1.751-1.424h-2.87c.093 2.117 1.845 3.41 4.64 3.41zm8.468-.019c1.323 0 2.162-.524 2.851-1.46h.056v1.18h2.907v-9.591h-3.037v5.357c0 1.143-.634 1.93-1.677 1.93-.969 0-1.435-.581-1.435-1.63v-5.657h-3.019v6.294c0 2.135 1.155 3.577 3.354 3.577zm7.136-.281h3.038V17.51c0-1.142.559-1.948 1.509-1.948.913 0 1.342.6 1.342 1.63v5.694h3.037V17.51c0-1.142.541-1.948 1.51-1.948.913 0 1.342.6 1.342 1.63v5.694h3.037V16.65c0-2.154-1.081-3.634-3.242-3.634-1.23 0-2.255.524-3.001 1.686h-.037c-.484-1.03-1.435-1.686-2.683-1.686-1.379 0-2.293.655-2.889 1.648h-.056v-1.367h-2.907v9.59z"/><path fill-rule="evenodd" clip-rule="evenodd" d="M16.108 31.472c8.577 0 15.53-6.989 15.53-15.61 0-8.621-6.953-15.61-15.53-15.61C7.531.252.578 7.241.578 15.862c0 8.621 6.953 15.61 15.53 15.61zm2.397-19.16a3.42 3.42 0 000-4.818 3.377 3.377 0 00-4.794 0 3.42 3.42 0 000 4.819l2.397 2.41 2.397-2.41zm1.134 5.96a3.377 3.377 0 004.794 0 3.42 3.42 0 000-4.82 3.377 3.377 0 00-4.794 0l-2.397 2.41 2.397 2.41zm-1.134 5.958a3.42 3.42 0 000-4.819l-2.397-2.409-2.397 2.41a3.42 3.42 0 000 4.818 3.378 3.378 0 004.794 0zM7.783 18.271a3.42 3.42 0 010-4.818 3.378 3.378 0 014.794 0l2.397 2.41-2.397 2.408a3.377 3.377 0 01-4.794 0z"/></g><defs><clipPath id="clip0_1_750"><path fill="#fff" transform="translate(.5)" d="M0 0h132v32H0z"/></clipPath></defs></svg>